<svg id="Layer_1" data-name="Layer 1" xmlns="http://www.w3.org/2000/svg" xmlns:xlink="http://www.w3.org/1999/xlink" viewBox="0 0 591.55 307.85"><defs><style>.cls-1{fill:#ea847c;}.cls-2{fill:#f7cac6;}.cls-3{fill:#f7a39b;}.cls-4{fill:#ffb4aa;}.cls-5{fill:#ea5045;}.cls-6{fill:#d37b79;}.cls-7{fill:#f79d94;}</style></defs><title>Artboard 6</title><polygon class="cls-1" points="87.32 234.19 43.66 232.86 0 231.53 23.02 193.04 46.05 154.55 66.69 194.37 87.32 234.19"/><polygon class="cls-2" points="143.31 218.71 107.72 239.25 72.14 259.8 63.86 204.37 55.59 148.94 99.45 183.83 143.31 218.71"/><polygon class="cls-3" points="64.28 187.03 42.38 171.87 20.48 156.71 58.35 125.4 96.23 94.1 80.25 140.56 64.28 187.03"/><polygon class="cls-4" points="84.2 163.11 107.93 142.27 131.67 121.43 144.26 159.71 156.85 197.99 120.53 180.55 84.2 163.11"/><polygon class="cls-5" points="160.36 191.42 143.81 213.02 127.26 234.62 100.23 196.77 73.2 158.91 116.78 175.17 160.36 191.42"/><polygon class="cls-1" points="94.57 92.95 116.61 107.9 138.65 122.85 100.74 155.01 62.83 187.17 78.7 140.06 94.57 92.95"/><polygon class="cls-4" points="73.74 191.5 50.18 205.1 26.61 218.71 24.18 187.29 21.76 155.88 47.75 173.69 73.74 191.5"/><polygon class="cls-2" points="133.39 127.05 170.46 161.98 207.54 196.92 177.61 191.54 147.68 186.17 140.53 156.61 133.39 127.05"/><polygon class="cls-3" points="166.23 250.45 139.69 243.41 113.16 236.37 131.93 219.14 150.71 201.91 158.47 226.18 166.23 250.45"/><polygon class="cls-4" points="141.26 135.25 179.27 129.85 217.28 124.45 201.66 151 186.04 177.54 163.65 156.4 141.26 135.25"/><polygon class="cls-1" points="227.09 188.7 206.53 183.03 185.97 177.36 207.45 139.61 228.92 101.87 228.01 145.29 227.09 188.7"/><polygon class="cls-6" points="304.28 221.74 330.08 165.89 257.55 153.81 304.28 221.74"/><polygon class="cls-5" points="273.52 152.69 261.1 160.28 250.21 166.94 226.91 181.2 227.36 155.76 227.81 130.31 250.66 141.5 273.52 152.69"/><polygon class="cls-1" points="365.01 132.7 304.28 221.74 322.55 164.71 365.01 132.7"/><polygon class="cls-6" points="186.16 176.66 206.47 182.5 226.77 188.34 214.78 191.79 202.8 195.25 194.48 185.95 186.16 176.66"/><polygon class="cls-3" points="305.07 221.74 207.54 193.04 261.84 159.71 305.07 221.74"/><polygon class="cls-4" points="207.54 193.04 285.47 259.8 301.26 220.62 207.54 193.04"/><polygon class="cls-6" points="285.47 259.8 207.54 193.04 185.97 224.45 285.47 259.8"/><polygon class="cls-1" points="212.67 193.43 188.64 221.35 164.62 249.26 155.25 216.9 145.87 184.54 179.27 188.99 212.67 193.43"/><polygon class="cls-6" points="285.47 259.8 301.26 220.62 331.85 230.43 285.47 259.8"/><polygon class="cls-5" points="301.26 220.62 383.96 197.49 331.85 230.43 301.26 220.62"/><polygon class="cls-4" points="305.93 219.32 365.01 132.7 383.96 197.49 305.93 219.32"/><polygon class="cls-3" points="400.59 252.32 383.96 197.49 331.85 230.43 400.59 252.32"/><polygon class="cls-5" points="365.01 132.7 445.95 149.95 447.76 157.57 383.96 197.49 365.01 132.7"/><polygon class="cls-3" points="412.43 107.19 365.01 132.7 488.71 121.44 412.43 107.19"/><polygon class="cls-1" points="445.95 149.95 488.71 121.44 365.01 132.7 445.95 149.95"/><polygon class="cls-6" points="383.96 197.49 447.76 157.57 461.36 210.7 383.96 197.49"/><polygon class="cls-1" points="400.59 252.32 461.36 210.7 383.96 197.49 400.59 252.32"/><polygon class="cls-2" points="445.95 149.95 488.71 121.44 541.18 131.15 532.4 144.59 445.95 149.95"/><polygon class="cls-3" points="511.56 177.22 532.4 144.59 445.95 149.95 447.76 157.57 511.56 177.22"/><polygon class="cls-2" points="461.36 210.7 447.76 157.57 511.56 177.22 461.36 210.7"/><polygon class="cls-6" points="496.2 268.02 511.56 177.22 461.36 210.7 496.2 268.02"/><polygon class="cls-1" points="511.56 177.22 543.37 259.79 496.2 268.02 511.56 177.22"/><polygon class="cls-6" points="534.6 170.65 511.56 177.22 543.37 259.79 534.6 170.65"/><polygon class="cls-3" points="591.55 283.38 543.37 259.79 591.55 213.71 591.55 283.38"/><polygon class="cls-4" points="591.55 156.11 591.55 213.71 543.37 259.79 534.6 170.65 591.55 156.11"/><polygon class="cls-1" points="591.55 141.03 591.55 156.11 534.6 170.65 591.55 141.03"/><polygon class="cls-1" points="532.4 144.59 534.6 170.65 591.55 141.03 532.4 144.59"/><polygon class="cls-2" points="511.56 177.22 532.4 144.59 534.6 170.65 511.56 177.22"/><polygon class="cls-2" points="532.4 144.59 541.18 131.15 591.55 141.03 532.4 144.59"/><polygon class="cls-6" points="591.55 141.03 576.29 115.52 551.33 132.7 591.55 141.03"/><polygon class="cls-1" points="564.77 94.95 576.29 115.52 551.33 132.7 541.18 131.15 564.77 94.95"/><polygon class="cls-1" points="591.55 107.19 591.55 141.03 576.29 115.52 591.55 107.19"/><polygon class="cls-6" points="564.77 94.95 576.29 115.52 591.55 107.19 591.55 54.08 564.77 94.95"/><polygon class="cls-2" points="554.62 77.94 564.77 94.95 591.55 54.08 554.62 77.94"/><polygon class="cls-1" points="488.71 121.44 541.18 54.08 554.62 77.94 488.71 121.44"/><polygon class="cls-3" points="591.55 54.08 591.55 44.21 541.18 54.08 554.62 77.94 591.55 54.08"/><polygon class="cls-1" points="591.55 9.89 591.55 44.21 541.18 54.08 591.55 9.89"/><polygon class="cls-4" points="554.62 77.94 564.77 94.95 541.18 131.15 488.71 121.44 554.62 77.94"/><polygon class="cls-5" points="513.96 279.45 519.78 270.78 526.74 279.45 513.96 279.45"/><polygon class="cls-2" points="241.78 250.45 246.11 285.17 253.11 258.13 241.78 250.45"/><polygon class="cls-5" points="212.67 244.13 212.67 252.32 218.8 248.22 212.67 244.13"/><polygon class="cls-7" points="173.49 264.45 193.14 280.78 195.81 259.8 173.49 264.45"/><polygon class="cls-2" points="49.89 72.23 58.35 67.57 65.22 79.23 49.89 72.23"/><polygon class="cls-2" points="125.52 109.54 138.65 118.2 156.85 109.54 125.52 109.54"/><polygon class="cls-7" points="262.44 114.54 271.43 121.44 276.43 111.21 262.44 114.54"/><polygon class="cls-7" points="354.05 103.21 406.39 77.94 404.36 101.87 354.05 103.21"/><polygon class="cls-5" points="474.32 77.94 474.32 103.21 489.18 103.21 474.32 77.94"/><polygon class="cls-2" points="523.08 45.91 530.95 54.08 541.18 38.92 523.08 45.91"/><image width="750" height="281" transform="translate(122.45 162.6) scale(0.23)" xlink:href="1176-1.png"/></svg>